<svg width="25" height="30" viewBox="0 0 25 30" fill="none" xmlns="http://www.w3.org/2000/svg">
<path d="M13.7671 4.36644V0H0V30H13.7671V25.6336C10.9469 25.6336 8.24219 24.5132 6.24805 22.519C4.25388 20.5248 3.13356 17.8202 3.13356 15C3.13356 12.1798 4.25388 9.47508 6.24805 7.48094C8.24219 5.48676 10.9469 4.36644 13.7671 4.36644Z" fill="#D3A0FA"/>
<path d="M13.7676 4.36642V25.6336C16.5878 25.6336 19.2925 24.5132 21.2867 22.519C23.2809 20.5248 24.4011 17.8202 24.4011 15C24.4011 12.1798 23.2809 9.47506 21.2867 7.48093C19.2925 5.48675 16.5878 4.36642 13.7676 4.36642Z" fill="#D3A0FA"/>
</svg>
