<svg width="100" height="130" viewBox="0 0 100 130" fill="none" xmlns="http://www.w3.org/2000/svg">
<path fill-rule="evenodd" clip-rule="evenodd" d="M113.25 -10L113.25 10.625L113.25 11L113.254 11C113.454 19.7324 120.595 26.75 129.375 26.75L150 26.75L150 31.25L129 31.25C120.301 31.25 113.25 38.3015 113.25 47C113.25 55.6985 120.301 62.75 129 62.75L150 62.75L150 67.25L129 67.25C120.301 67.25 113.25 74.3015 113.25 83C113.25 91.6985 120.301 98.75 129 98.75L150 98.75L150 104L129 104C120.301 104 113.25 111.051 113.25 119.75L113.25 140L108.75 140L108.75 119C108.75 110.301 101.698 103.25 93 103.25C84.3015 103.25 77.25 110.301 77.25 119L77.25 140L72.75 140L72.75 119C72.75 110.301 65.6985 103.25 57 103.25C48.3015 103.25 41.25 110.301 41.25 119L41.25 140L36.75 140L36.75 119.75C36.75 111.051 29.6985 104 21 104L20.25 104L-4.9831e-06 104L-4.75361e-06 98.75L21 98.75C29.6985 98.75 36.75 91.6985 36.75 83C36.75 74.3015 29.6985 67.25 21 67.25L-3.3767e-06 67.25L-3.18e-06 62.75L21 62.75C29.6985 62.75 36.75 55.6985 36.75 47C36.75 38.3015 29.6985 31.25 21 31.25L-1.80309e-06 31.25L-1.60639e-06 26.75L20.625 26.75C29.4052 26.75 36.5468 19.7324 36.7455 11L36.75 11L36.75 10.625L36.75 -10L41.25 -10L41.25 11C41.25 19.6985 48.3015 26.75 57 26.75C65.6985 26.75 72.75 19.6985 72.75 11L72.75 -10L77.25 -10L77.25 11C77.25 19.6985 84.3015 26.75 93 26.75C101.698 26.75 108.75 19.6985 108.75 11L108.75 -10L113.25 -10ZM77.25 47C77.25 55.6985 84.3015 62.75 93 62.75C101.698 62.75 108.75 55.6985 108.75 47C108.75 38.3015 101.698 31.25 93 31.25C84.3015 31.25 77.25 38.3015 77.25 47ZM77.25 83C77.25 91.6985 84.3015 98.75 93 98.75C101.698 98.75 108.75 91.6985 108.75 83C108.75 74.3015 101.698 67.25 93 67.25C84.3015 67.25 77.25 74.3015 77.25 83ZM57 62.75C48.3015 62.75 41.25 55.6985 41.25 47C41.25 38.3015 48.3015 31.25 57 31.25C65.6985 31.25 72.75 38.3015 72.75 47C72.75 55.6985 65.6985 62.75 57 62.75ZM41.25 83C41.25 91.6985 48.3015 98.75 57 98.75C65.6985 98.75 72.75 91.6985 72.75 83C72.75 74.3015 65.6985 67.25 57 67.25C48.3015 67.25 41.25 74.3015 41.25 83Z" fill="#DEBAFC"/>
</svg>
