<svg width="100" height="130" viewBox="0 0 100 130" fill="none" xmlns="http://www.w3.org/2000/svg">
<path fill-rule="evenodd" clip-rule="evenodd" d="M32.4418 120.99L32.4417 140H42.5583V120.99C42.5583 113.572 48.572 107.558 55.9901 107.558H56.0267H75H93.972H94.0103C101.428 107.558 107.442 113.572 107.442 120.99V140H117.558V120.99C117.558 113.572 123.572 107.558 130.991 107.558H131.026H150V97.442H131.026H130.991C123.572 97.442 117.558 91.4285 117.558 84.0103V65V45.9901C117.558 38.5718 123.572 32.5582 130.991 32.5582L131.026 32.5582H150V22.4418H131.026H130.991C123.572 22.4418 117.558 16.4281 117.558 9.00995V-10L107.442 -10V9.00995C107.442 16.4281 101.428 22.4419 94.0103 22.4419L93.9735 22.4418H75H56.0266L55.9901 22.4419C48.572 22.4419 42.5583 16.4282 42.5583 9.00995V-10L32.4417 -10V9.00995C32.4418 16.4282 26.4281 22.4419 19.0099 22.4419L18.9734 22.4418H0L5.62875e-08 32.5582H18.9723L19.0099 32.5582C26.4281 32.5582 32.4418 38.5718 32.4418 45.9901L32.4417 65V84.0103C32.4418 91.4285 26.4281 97.442 19.0099 97.442H18.9734H0L5.62875e-08 107.558H18.9723H19.0099C26.4281 107.558 32.4418 113.572 32.4418 120.99ZM107.442 65V45.9901C107.442 38.5718 101.428 32.5582 94.0103 32.5582L93.972 32.5582H75H56.0267L55.9901 32.5582C48.572 32.5582 42.5583 38.5718 42.5583 45.9901V65V84.0103C42.5583 91.4285 48.572 97.442 55.9901 97.442H56.0266H75H93.9735H94.0103C101.428 97.442 107.442 91.4285 107.442 84.0103V65Z" fill="#FA9A82"/>
</svg>
